<?xml version="1.0" encoding="UTF-8"?>
<!-- Created with Inkscape (http://www.inkscape.org/) -->
<svg width="112.98mm" height="93.662mm" version="1.1" viewBox="0 0 112.98 93.662" xmlns="http://www.w3.org/2000/svg" xmlns:cc="http://creativecommons.org/ns#" xmlns:dc="http://purl.org/dc/elements/1.1/" xmlns:rdf="http://www.w3.org/1999/02/22-rdf-syntax-ns#" xmlns:xlink="http://www.w3.org/1999/xlink">
 <defs>
  <radialGradient id="radialGradient853" cx="160.74" cy="83.713" r="56.489" gradientTransform="matrix(.43085 -.86072 1.5658 .78381 -32.985 136.5)" gradientUnits="userSpaceOnUse">
   <stop stop-color="#591d00" offset="0"/>
   <stop stop-color="#a75300" offset="1"/>
  </radialGradient>
 </defs>
 <metadata>
  <rdf:RDF>
   <cc:Work rdf:about="">
    <dc:format>image/svg+xml</dc:format>
    <dc:type rdf:resource="http://purl.org/dc/dcmitype/StillImage"/>
    <dc:title/>
   </cc:Work>
  </rdf:RDF>
 </metadata>
 <g transform="translate(-108.48 -39.952)">
  <ellipse cx="164.97" cy="86.783" rx="56.489" ry="46.831" fill="url(#radialGradient853)" stroke-width="0"/>
  <g fill="#030303" fill-opacity=".95392" stroke="#060606" stroke-dashoffset="21.12" stroke-linecap="square" stroke-width=".60854">
   <path d="m147.9 58.208a5.424 4.7625 0 01-5.3756 4.7623 5.424 4.7625 0 01-5.4715-4.6774 5.424 4.7625 0 015.278-4.8457 5.424 4.7625 0 015.5656 4.5909l-5.4205.16986z"/>
   <path d="m138.11 78.317a5.424 4.7625 0 01-5.3756 4.7623 5.424 4.7625 0 01-5.4715-4.6774 5.424 4.7625 0 015.278-4.8457 5.424 4.7625 0 015.5656 4.5909l-5.4205.16986z"/>
   <path d="m184.68 80.698a5.424 4.7625 0 01-5.3756 4.7623 5.424 4.7625 0 01-5.4715-4.6774 5.424 4.7625 0 015.278-4.8457 5.424 4.7625 0 015.5656 4.5909l-5.4205.16986z"/>
   <path d="m146.58 107.16a5.424 4.7625 0 01-5.3756 4.7623 5.424 4.7625 0 01-5.4715-4.6774 5.424 4.7625 0 015.278-4.8457 5.424 4.7625 0 015.5656 4.5909l-5.4205.16987z"/>
   <path d="m190.24 108.21a5.424 4.7625 0 01-5.3756 4.7623 5.424 4.7625 0 01-5.4715-4.6774 5.424 4.7625 0 015.278-4.8457 5.424 4.7625 0 015.5656 4.5909l-5.4205.16986z"/>
   <path d="m210.34 73.819a5.424 4.7625 0 01-5.3756 4.7623 5.424 4.7625 0 01-5.4715-4.6774 5.424 4.7625 0 015.278-4.8457 5.424 4.7625 0 015.5656 4.5909l-5.4205.16986z"/>
   <path d="m187.06 52.123a5.424 4.7625 0 01-5.3756 4.7623 5.424 4.7625 0 01-5.4715-4.6774 5.424 4.7625 0 015.278-4.8457 5.424 4.7625 0 015.5656 4.5909l-5.4205.16986z"/>
  </g>
 </g>
</svg>
