<?xml version="1.0" standalone="no"?>
<!DOCTYPE svg PUBLIC "-//W3C//DTD SVG 20010904//EN"
 "http://www.w3.org/TR/2001/REC-SVG-20010904/DTD/svg10.dtd">
<svg version="1.0" xmlns="http://www.w3.org/2000/svg"
 width="700.000000pt" height="700.000000pt" viewBox="0 0 700.000000 700.000000"
 preserveAspectRatio="xMidYMid meet">
<metadata>
Created by potrace 1.11, written by Peter Selinger 2001-2013
</metadata>
<g transform="translate(0.000000,700.000000) scale(0.100000,-0.100000)"
fill="#000000" stroke="none">
<path d="M3288 5475 c-2 -1 -46 -5 -98 -9 -52 -3 -115 -8 -140 -11 -137 -18
-269 -37 -300 -45 -19 -5 -51 -12 -70 -15 -208 -35 -573 -151 -865 -275 -130
-55 -484 -231 -520 -259 -5 -5 -37 -23 -70 -41 -33 -17 -79 -45 -103 -61 -24
-16 -45 -29 -47 -29 -11 0 -379 -252 -470 -322 -50 -38 -391 -313 -395 -318
-3 -3 -45 -42 -95 -85 -50 -44 -96 -85 -102 -92 -10 -9 -13 -103 -13 -405 l0
-393 46 -40 c26 -22 56 -49 68 -60 32 -30 239 -201 341 -281 161 -127 297
-225 465 -335 91 -60 170 -112 176 -116 12 -9 24 -16 178 -105 484 -280 951
-463 1456 -572 63 -13 131 -27 150 -29 328 -46 394 -51 645 -52 171 0 390 10
441 19 10 2 46 7 79 11 33 4 69 9 80 11 11 2 47 8 80 13 33 6 71 12 85 16 14
3 39 8 55 11 138 24 524 137 630 183 11 5 47 19 80 32 33 12 88 35 123 51 34
15 65 28 67 28 10 0 342 168 425 215 433 245 862 561 1263 931 l67 62 0 395 0
395 -53 48 c-70 63 -174 154 -206 179 -14 11 -35 28 -46 38 -34 31 -264 209
-380 293 -158 116 -326 227 -497 329 -133 80 -399 220 -568 298 -189 88 -604
235 -736 261 -10 2 -57 13 -104 25 -110 27 -167 39 -210 45 -19 3 -44 8 -56
10 -12 2 -45 7 -74 11 -29 4 -62 9 -74 11 -11 2 -50 6 -86 10 -36 3 -76 8 -90
10 -26 5 -527 14 -532 9z m17 -543 c-6 -5 -44 -14 -85 -21 -163 -26 -393 -124
-555 -236 -38 -27 -120 -99 -181 -159 -211 -211 -339 -450 -399 -747 -21 -100
-27 -350 -13 -459 43 -317 183 -597 414 -827 217 -217 464 -345 784 -407 27
-5 -70 2 -135 9 -49 6 -184 26 -205 30 -8 2 -51 11 -95 20 -172 35 -495 130
-610 180 -16 7 -48 20 -70 28 -22 8 -65 25 -95 38 -73 31 -486 239 -530 268
-19 12 -100 63 -180 113 -128 79 -367 241 -380 258 -3 3 -35 27 -72 53 -70 49
-311 244 -414 334 -32 28 -72 63 -87 76 -25 21 -27 26 -14 38 49 49 283 251
351 304 22 17 62 48 90 70 213 170 537 388 750 506 137 77 386 197 513 248 70
29 137 56 148 61 18 8 62 23 75 25 3 0 48 15 100 32 100 33 235 72 279 79 14
3 42 9 61 14 39 10 39 10 185 35 17 3 49 8 71 11 23 2 52 7 65 9 12 3 65 7
118 11 53 4 98 8 100 10 2 2 9 4 15 4 6 0 6 -3 1 -8z m596 -17 c13 -2 60 -9
104 -15 44 -7 89 -14 100 -16 11 -2 36 -7 55 -10 48 -8 202 -44 220 -51 8 -3
24 -8 34 -10 28 -5 218 -63 241 -73 11 -5 52 -20 90 -34 204 -72 506 -214 735
-346 248 -143 564 -363 825 -574 116 -94 325 -275 325 -282 0 -21 -393 -354
-615 -521 -122 -92 -418 -293 -431 -293 -4 0 -15 -6 -23 -14 -16 -14 -24 -19
-196 -114 -90 -50 -399 -202 -410 -202 -3 0 -24 -8 -48 -18 -338 -148 -779
-251 -1182 -277 -109 -7 -127 -1 -27 9 122 13 316 72 445 137 148 75 254 154
388 290 209 211 335 461 394 779 11 60 14 332 4 398 -20 137 -27 169 -71 297
-69 203 -181 379 -342 541 -204 203 -450 338 -721 394 l-90 19 86 -5 c47 -2
96 -6 110 -9z"/>
</g>
</svg>
