<?xml version="1.0" encoding="UTF-8"?>
<!-- Created with Inkscape (http://www.inkscape.org/) -->
<svg width="167.57mm" height="41.767mm" version="1.1" viewBox="0 0 167.57 41.767" xmlns="http://www.w3.org/2000/svg" xmlns:cc="http://creativecommons.org/ns#" xmlns:dc="http://purl.org/dc/elements/1.1/" xmlns:rdf="http://www.w3.org/1999/02/22-rdf-syntax-ns#">
 <metadata>
  <rdf:RDF>
   <cc:Work rdf:about="">
    <dc:format>image/svg+xml</dc:format>
    <dc:type rdf:resource="http://purl.org/dc/dcmitype/StillImage"/>
    <dc:title/>
   </cc:Work>
  </rdf:RDF>
 </metadata>
 <g class="DRKSLVlogo" transform="translate(-62.542 -84.02)">
  <flowRoot transform="scale(.26458)" fill="#000000" font-family="sans-serif" font-size="40px" letter-spacing="0px" word-spacing="0px" style="line-height:1.25" xml:space="preserve"><flowRegion><rect x="351" y="329" width="364" height="102"/></flowRegion><flowPara/></flowRoot>
  <g>
   <path d="m62.542 125.15v-36.37h12.884c12.918 0 19.377 5.9095 19.377 17.729 0 5.6644-1.7669 10.187-5.3008 13.569-3.517 3.3817-8.2752 5.0726-14.076 5.0726zm8.1922-29.7c15.446 11.16 15.446 11.16 0 23.055h4.058c3.5508 0 6.3322-1.0652 8.3444-3.1957 2.029-2.1305 3.0435-5.0303 3.0435-8.6994 0-3.4662-1.0061-6.1885-3.0182-8.1668-1.9952-1.9952-4.802-2.9928-8.4204-2.9928z" style="font-feature-settings:normal;font-variant-caps:normal;font-variant-ligatures:normal;font-variant-numeric:normal"/>
   <path d="m125.58 125.15h-9.4096l-5.6559-9.3589q-.63407-1.0652-1.2174-1.9022-.58335-.83697-1.192-1.4203-.58335-.60871-1.2428-.91306-.63407-.32972-1.395-.32972h-2.2066v13.924h-8.1922v-36.37h12.986q13.239 0 13.239 9.8915 0 1.9022-.58335 3.5254-.58334 1.5979-1.6486 2.8914-1.0652 1.2935-2.587 2.2319-1.4964.93842-3.3479 1.471v.10145q.81161.25363 1.5725.83697.76089.55799 1.471 1.3189.71016.76088 1.3442 1.6486.65944.86234 1.192 1.6993zm-22.319-30.232v10.12h3.5508q2.6377 0 4.2356-1.5218 1.6232-1.5471 1.6232-3.8298 0-4.7682-5.7066-4.7682z" style="font-feature-settings:normal;font-variant-caps:normal;font-variant-ligatures:normal;font-variant-numeric:normal"/>
   <path d="m151.15 119.86-5.6847 5.2917-10.602-15.801c-.20291-.30435-.52417-.97224-.96379-2.0037h-.12681v17.805h-8.1922v-36.37h8.1922v17.196h.12681c.2029-.47344.54107-1.1498 1.0145-2.029l10.044-15.167h9.7647l-12.681 17.348z" style="font-feature-settings:normal;font-variant-caps:normal;font-variant-ligatures:normal;font-variant-numeric:normal"/>
   <path d="m155.8 123.76v-8.1161q2.2066 1.8515 4.7936 2.7899 2.587.91306 5.2247.91306 1.5471 0 2.6884-.27899 1.1667-.27899 1.9276-.76088.78624-.50726 1.1667-1.1667.38044-.6848.38044-1.471 0-1.0652-.60871-1.9022t-1.6739-1.5471q-1.0399-.71016-2.4856-1.3696-1.4457-.65944-3.1196-1.3442-4.261-1.7754-6.3661-4.337-2.0798-2.5616-2.0798-6.1885 0-2.8406 1.1413-4.8697 1.1413-2.0544 3.0943-3.3733 1.9783-1.3189 4.5653-1.9276 2.587-.63407 5.4784-.63407 2.8406 0 5.0218.35508 2.2066.32972 4.058 1.0399v7.5835q-.91306-.63407-2.0037-1.116-1.0652-.48189-2.2066-.78625-1.1413-.32972-2.2826-.48189-1.116-.15218-2.1305-.15218-1.395 0-2.5363.27899-1.1413.25363-1.9276.73552-.78625.48189-1.2174 1.1667-.43117.65943-.43117 1.4964 0 .91306.48189 1.6486.48189.71015 1.3696 1.3696.8877.63407 2.1558 1.2681 1.2681.6087 2.866 1.2681 2.1812.91306 3.9059 1.9529 1.75 1.0145 2.9928 2.308 1.2428 1.2935 1.9022 2.9674.65944 1.6486.65944 3.8552 0 3.0435-1.1667 5.1233-1.1413 2.0544-3.1196 3.3479-1.9783 1.2681-4.616 1.8261-2.6124.55798-5.5291.55798-2.9928 0-5.7066-.50725-2.6885-.50726-4.6668-1.5218z" style="font-feature-settings:normal;font-variant-caps:normal;font-variant-ligatures:normal;font-variant-numeric:normal"/>
   <path d="m203.52 125.15h-21.66v-36.37h8.1922l.79375 29.947 12.674-.22194z" style="font-feature-settings:normal;font-variant-caps:normal;font-variant-ligatures:normal;font-variant-numeric:normal"/>
   <path d="m230.12 88.782-12.529 36.37h-9.2828l-13.965-41.133 8.8924 2.1167 9.1048 27.958c.4058 1.3696.65097 2.5785.73552 3.6269h.15218c.11835-1.1329.38043-2.3756.78624-3.7283l8.7895-23.16z" style="font-feature-settings:normal;font-variant-caps:normal;font-variant-ligatures:normal;font-variant-numeric:normal"/>
  </g>
 </g>
</svg>
